<?xml version="1.0" standalone="no"?><!DOCTYPE svg PUBLIC "-//W3C//DTD SVG 1.1//EN" "http://www.w3.org/Graphics/SVG/1.1/DTD/svg11.dtd"><svg t="1676355856152" class="icon" viewBox="0 0 1024 1024" version="1.1" xmlns="http://www.w3.org/2000/svg" p-id="1527" xmlns:xlink="http://www.w3.org/1999/xlink" width="128" height="128"><path d="M416 896 224 896c-52.9 0-96-43.1-96-96L128 160c0-52.9 43.1-96 96-96l512 0c52.9 0 96 43.1 96 96l0 256c0 17.7-14.3 32-32 32s-32-14.3-32-32L768 160c0-17.6-14.4-32-32-32L224 128c-17.6 0-32 14.4-32 32l0 640c0 17.6 14.4 32 32 32l192 0c17.7 0 32 14.3 32 32S433.7 896 416 896z" p-id="1528"></path><path d="M672 320 288 320c-17.7 0-32-14.3-32-32s14.3-32 32-32l384 0c17.7 0 32 14.3 32 32S689.7 320 672 320z" p-id="1529"></path><path d="M416 512 288 512c-17.7 0-32-14.3-32-32s14.3-32 32-32l128 0c17.7 0 32 14.3 32 32S433.7 512 416 512z" p-id="1530"></path><path d="M384 704l-96 0c-17.7 0-32-14.3-32-32s14.3-32 32-32l96 0c17.7 0 32 14.3 32 32S401.7 704 384 704z" p-id="1531"></path><path d="M544 672c-17.7 0-32-14.3-32-32l0-96c0-17.7 14.3-32 32-32l96 0c17.7 0 32 14.3 32 32s-14.3 32-32 32l-64 0 0 64C576 657.7 561.7 672 544 672z" p-id="1532"></path><path d="M928 672c-17.7 0-32-14.3-32-32l0-64-64 0c-17.7 0-32-14.3-32-32s14.3-32 32-32l96 0c17.7 0 32 14.3 32 32l0 96C960 657.7 945.7 672 928 672z" p-id="1533"></path><path d="M640 960l-96 0c-17.7 0-32-14.3-32-32l0-96c0-17.7 14.3-32 32-32s32 14.3 32 32l0 64 64 0c17.7 0 32 14.3 32 32S657.7 960 640 960z" p-id="1534"></path><path d="M928 960l-96 0c-17.7 0-32-14.3-32-32s14.3-32 32-32l64 0 0-64c0-17.7 14.3-32 32-32s32 14.3 32 32l0 96C960 945.7 945.7 960 928 960z" p-id="1535"></path><path d="M928 768 544 768c-17.7 0-32-14.3-32-32s14.3-32 32-32l384 0c17.7 0 32 14.3 32 32S945.7 768 928 768z" p-id="1536"></path></svg>