<?xml version="1.0" standalone="no"?><!DOCTYPE svg PUBLIC "-//W3C//DTD SVG 1.1//EN" "http://www.w3.org/Graphics/SVG/1.1/DTD/svg11.dtd"><svg t="1676340720081" class="icon" viewBox="0 0 1024 1024" version="1.1" xmlns="http://www.w3.org/2000/svg" p-id="1788" xmlns:xlink="http://www.w3.org/1999/xlink" width="128" height="128"><path d="M0 0m349.090909 0l325.818182 0q349.090909 0 349.090909 349.090909l0 325.818182q0 349.090909-349.090909 349.090909l-325.818182 0q-349.090909 0-349.090909-349.090909l0-325.818182q0-349.090909 349.090909-349.090909Z" fill="#3271FD" p-id="1789"></path><path d="M598.621091 579.409455a117.131636 117.131636 0 0 1 147.805091 14.836363 117.073455 117.073455 0 0 1 34.059636 82.199273 116.887273 116.887273 0 0 1-94.091636 114.792727 117.038545 117.038545 0 0 1-131.025455-69.911273 116.747636 116.747636 0 0 1 43.252364-141.91709zM665.588364 232.727273a43.380364 43.380364 0 0 1 43.543272 40.669091l0.081455 2.292363-2.257455 258.315637a152.494545 152.494545 0 0 0-51.118545-8.762182c-84.363636 0-152.750545 68.386909-152.750546 152.738909a152.203636 152.203636 0 0 0 40.925091 104.064h-267.752727a43.229091 43.229091 0 0 1-43.438545-40.331636L232.727273 739.072V275.688727a43.205818 43.205818 0 0 1 40.890182-42.903272l2.641454-0.058182h389.329455z m53.410909 392.692363a8.203636 8.203636 0 0 0-8.843637-1.885091L612.072727 662.272a8.494545 8.494545 0 0 0-5.678545 8.180364 9.134545 9.134545 0 0 0 5.992727 7.877818l26.181818 9.448727c8.029091 2.967273 14.370909 9.297455 17.338182 17.326546l9.774546 26.449454c1.408 3.269818 4.642909 5.387636 8.203636 5.352727a9.460364 9.460364 0 0 0 8.203636-5.352727l38.167273-97.629091a8.494545 8.494545 0 0 0-1.268364-8.506182z m-274.583273-115.735272h-96.337455c-16.418909 0-29.730909 10.251636-29.730909 22.912 0 12.125091 12.218182 22.050909 27.694546 22.853818l2.036363 0.058182h96.337455c16.418909 0 29.730909-10.263273 29.730909-22.923637 0-12.648727-13.312-22.900364-29.730909-22.900363z m110.650182-157.253819H341.294545a22.923636 22.923636 0 0 0-22.958545 22.923637 22.923636 22.923636 0 0 0 21.236364 22.842182l1.722181 0.058181H555.054545a22.923636 22.923636 0 0 0 22.94691-22.912 22.923636 22.923636 0 0 0-22.94691-22.912z" fill="#FFFFFF" p-id="1790"></path></svg>