<?xml version="1.0" standalone="no"?><!DOCTYPE svg PUBLIC "-//W3C//DTD SVG 1.1//EN" "http://www.w3.org/Graphics/SVG/1.1/DTD/svg11.dtd"><svg t="1676355769059" class="icon" viewBox="0 0 1024 1024" version="1.1" xmlns="http://www.w3.org/2000/svg" p-id="1209" xmlns:xlink="http://www.w3.org/1999/xlink" width="128" height="128"><path d="M384 896 160 896c-52.9 0-96-43.1-96-96L64 160c0-52.9 43.1-96 96-96l512 0c52.9 0 96 43.1 96 96l0 192c0 17.7-14.3 32-32 32s-32-14.3-32-32L704 160c0-17.6-14.4-32-32-32L160 128c-17.6 0-32 14.4-32 32l0 640c0 17.6 14.4 32 32 32l224 0c17.7 0 32 14.3 32 32S401.7 896 384 896z" p-id="1210"></path><path d="M688 960c-72.7 0-141-28.3-192.3-79.7C444.3 829 416 760.7 416 688s28.3-141 79.7-192.3C547 444.3 615.3 416 688 416s141 28.3 192.3 79.7C931.7 547.1 960 615.4 960 688s-28.3 141-79.7 192.3S760.7 960 688 960zM688 480c-114.7 0-208 93.3-208 208s93.3 208 208 208 208-93.3 208-208S802.7 480 688 480z" p-id="1211"></path><path d="M800 768 672 768c-17.7 0-32-14.3-32-32L640 576c0-17.7 14.3-32 32-32s32 14.3 32 32l0 128 96 0c17.7 0 32 14.3 32 32S817.7 768 800 768z" p-id="1212"></path><path d="M608 320 224 320c-17.7 0-32-14.3-32-32s14.3-32 32-32l384 0c17.7 0 32 14.3 32 32S625.7 320 608 320z" p-id="1213"></path><path d="M384 512 224 512c-17.7 0-32-14.3-32-32s14.3-32 32-32l160 0c17.7 0 32 14.3 32 32S401.7 512 384 512z" p-id="1214"></path><path d="M320 704l-96 0c-17.7 0-32-14.3-32-32s14.3-32 32-32l96 0c17.7 0 32 14.3 32 32S337.7 704 320 704z" p-id="1215"></path></svg>